<?xml version="1.0" standalone="no"?>
<!DOCTYPE svg PUBLIC "-//W3C//DTD SVG 20010904//EN"
 "http://www.w3.org/TR/2001/REC-SVG-20010904/DTD/svg10.dtd">
<svg version="1.0" xmlns="http://www.w3.org/2000/svg"
 width="128.000000pt" height="128.000000pt" viewBox="0 0 128.000000 128.000000"
 preserveAspectRatio="xMidYMid meet">

<g transform="translate(0.000000,128.000000) scale(0.100000,-0.100000)"
fill="#000000" stroke="none">
<path d="M501 1154 c-84 -22 -170 -73 -236 -139 -208 -208 -208 -542 0 -750
208 -208 542 -208 750 0 208 208 208 542 0 750 -67 67 -153 117 -240 140 -73
19 -202 18 -274 -1z m285 -115 c148 -56 249 -180 275 -338 15 -96 -12 -214
-67 -299 l-15 -23 -40 55 c-37 52 -135 126 -167 126 -9 0 -1 14 18 37 43 49
60 92 60 153 0 84 -53 161 -132 194 -134 56 -288 -47 -288 -194 0 -61 17 -104
58 -151 l31 -35 -33 -12 c-48 -18 -111 -70 -151 -126 l-34 -47 -15 23 c-141
216 -60 512 169 619 110 52 223 58 331 18z m-83 -209 c38 -30 52 -80 33 -123
-15 -37 -59 -67 -96 -67 -62 0 -118 70 -105 131 15 68 112 103 168 59z m52
-378 c62 -31 135 -112 135 -150 0 -19 -119 -71 -189 -83 -40 -6 -82 -6 -122 0
-72 12 -189 64 -189 84 0 24 58 101 94 126 83 55 191 65 271 23z"/>
</g>
</svg>
